<svg width="13" height="13" viewBox="0 0 13 13" fill="none" xmlns="http://www.w3.org/2000/svg">
<path d="M12.0002 12.6667C12.5515 12.6667 13.0002 12.218 13.0002 11.6667V9.33333C13.0002 8.782 12.5515 8.33333 12.0002 8.33333C11.2202 8.33333 10.4535 8.21067 9.72016 7.96867C9.54487 7.91331 9.35784 7.90659 9.17902 7.94921C9.0002 7.99183 8.83631 8.08219 8.70483 8.21067L7.74483 9.17067C6.08557 8.26988 4.72285 6.90762 3.8215 5.24867L4.7735 4.29067C5.04816 4.036 5.14683 3.64867 5.0295 3.276C4.78799 2.54153 4.66555 1.77315 4.66683 1C4.66683 0.448667 4.21816 0 3.66683 0H1.3335C0.782163 0 0.333496 0.448667 0.333496 1C0.333496 7.43333 5.56683 12.6667 12.0002 12.6667ZM1.3335 0.666667H3.66683C3.75523 0.666667 3.84002 0.701786 3.90253 0.764298C3.96504 0.82681 4.00016 0.911595 4.00016 1C4.00016 1.85133 4.1335 2.68733 4.3955 3.48C4.41475 3.53752 4.417 3.59937 4.40198 3.65814C4.38696 3.71691 4.35531 3.7701 4.31083 3.81133L3.00683 5.122C4.09816 7.274 5.71016 8.886 7.87216 9.98667L9.1715 8.68667C9.21583 8.64279 9.27126 8.6118 9.33186 8.597C9.39245 8.58221 9.45593 8.58417 9.5155 8.60267C10.3128 8.86667 11.1488 9 12.0002 9C12.1835 9 12.3335 9.15 12.3335 9.33333V11.6667C12.3335 11.85 12.1835 12 12.0002 12C5.93483 12 1.00016 7.06533 1.00016 1C1.00016 0.911595 1.03528 0.82681 1.09779 0.764298C1.16031 0.701786 1.24509 0.666667 1.3335 0.666667Z" fill="#43FFD2"/>
</svg>
